{"title":"Bajrangi Bhaijaan (2015) HINDI Non-Retail DVD X264 {VikkyMaxx}","uid":12154517,"size":903856118,"categoryP":"video","categoryS":"movies","magnet":"?xt=urn:btih:c53c0df4707599f40622b793d9cc4d8d0eef0b27&amp;dn=Bajrangi+Bhaijaan+%282015%29+HINDI+Non-Retail+DVD+X264+%7BVikkyMaxx%7D&amp;tr=udp%3A%2F%2Ftracker.openbittorrent.com%3A80&amp;tr=udp%3A%2F%2Fopen.demonii.com%3A1337&amp;tr=udp%3A%2F%2Ftracker.coppersurfer.tk%3A6969&amp;tr=udp%3A%2F%2Fexodus.desync.com%3A6969","seeders":3,"leechers":0,"uploader":"shailendramaxx","files":4,"time":1437696187,"description":"VikkyMaxx Presents :-\n\n\nIMDB :- http://www.imdb.com/title/tt3863552\n\nRATINGS :- 8.2/10\n\nPLOT :- A young mute girl from Pakistan loses herself in India with no way to head back. A devoted man with a magnanimous spirit undertakes the task to get her back to her motherland and unite her with her family.\n\nCAST :- Salman Khan, Kareena Kapoor, Harshaali Malthotra, Nawazuddin Siddiqui \n\n\nGeneral:- \n\nComplete name :Bajrangi Bhaijaan (2015) HINDI Non-Retail DVD X264 {VikkyMaxx}\nFormat : Matroska \nFormat version : Version 2 \nFile size : 856 MiB \nDuration : 2h 39mn \nOverall bit rate mode : Variable \nOverall bit rate : 750 Kbps \nEncoded date : UTC 2015-07-24 08:01:38 \nWriting application : mkvmerge v7.7.0 ('Six Voices') 32bit built on Feb 28 2015 23:23:00 \nWriting library : libebml v1.3.1 + libmatroska v1.4.2 \nDURATION : 02:39:32.928000000 \nNUMBER_OF_FRAMES : 398872 \nNUMBER_OF_BYTES : 144712776 \n_STATISTICS_WRITING_APP : mkvmerge v7.7.0 ('Six Voices') 32bit built on Feb 28 2015 23:23:00 \n\nVideo:-\n \nID : 1 \nFormat : AVC \nFormat/Info : Advanced Video Codec \nFormat profile : &lt;a class=&quot;__cf_email__&quot; href=&quot;/cdn-cgi/l/email-protection&quot; data-cfemail=&quot;b5fddcd2ddf5f9879b84&quot;&gt;[email&amp;#160;protected]&lt;/a&gt;&lt;script data-cfhash='f9e31' type=&quot;text/javascript&quot;&gt;\n/* &lt;![CDATA[ */!function(){try{var t=&quot;currentScript&quot;in document?document.currentScript:function(){for(var t=document.getElementsByTagName(&quot;script&quot;),e=t.length;e--;)if(t[e].getAttribute(&quot;data-cfhash&quot;))return t[e]}();if(t&amp;&amp;t.previousSibling){var e,r,n,i,c=t.previousSibling,a=c.getAttribute(&quot;data-cfemail&quot;);if(a){for(e=&quot;&quot;,r=parseInt(a.substr(0,2),16),n=2;a.length-n;n+=2)i=parseInt(a.substr(n,2),16)^r,e+=String.fromCharCode(i);e=document.createTextNode(e),c.parentNode.replaceChild(e,c)}t.parentNode.removeChild(t);}}catch(u){}}()/* ]]&gt; */&lt;/script&gt; \nFormat settings, CABAC : Yes \nFormat settings, ReFrames : 4 frames \nCodec ID : V_MPEG4/ISO/AVC \nDuration : 2h 39mn \nBit rate : 627 Kbps \nWidth : 608 pixels \nHeight : 256 pixels \nDisplay aspect ratio : 2.40:1 \nFrame rate mode : Constant \nFrame rate : 24.000 fps \nColor space : YUV \nChroma subsampling : 4:2:0 \nBit depth : 8 bits \nScan type : Progressive \nBits/(Pixel*Frame) : 0.168 \nStream size : 701 MiB (82%) \nWriting library : x264 core 146 r2538 121396c \nEncoding settings : cabac=1 / ref=3 / deblock=1:0:0\nDefault : Yes \nForced : No \nSource : John F. Nash @ Team EXD ( A Big Hug)\n\nAudio:-\n \nID : 2 \nFormat : MPEG Audio \nFormat version : Version 1 \nFormat profile : Layer 3 \nMode : Joint stereo \nMode extension : MS Stereo \nCodec ID : A_MPEG/L3 \nCodec ID/Hint : MP3 \nDuration : 2h 39mn \nBit rate mode : Variable \nBit rate : 121 Kbps \nNominal bit rate : 128 Kbps \nChannel(s) : 2 channels \nSampling rate : 48.0 KHz \nCompression mode : Lossy \nStream size : 138 MiB (16%) \nWriting library : LAME3.99r \nEncoding settings : -m j -V 4 -q 2 -lowpass 17 --abr 128 \nLanguage : Hindi \nDefault : Yes \nForced : No \n\nSCREENS:-\n &lt;a href=&quot;\nhttp://i.imgur.com/zw6Inbk.png&quot; rel=&quot;nofollow&quot; target=&quot;_NEW&quot;&gt;\nhttp://i.imgur.com/zw6Inbk.png&lt;/a&gt;\n &lt;a href=&quot;\nhttp://i.imgur.com/7uw9a2e.png&quot; rel=&quot;nofollow&quot; target=&quot;_NEW&quot;&gt;\nhttp://i.imgur.com/7uw9a2e.png&lt;/a&gt;\n &lt;a href=&quot;\nhttp://i.imgur.com/Eeixcmj.png&quot; rel=&quot;nofollow&quot; target=&quot;_NEW&quot;&gt;\nhttp://i.imgur.com/Eeixcmj.png&lt;/a&gt;\n &lt;a href=&quot;\nhttp://i.imgur.com/zG8ah3T.png&quot; rel=&quot;nofollow&quot; target=&quot;_NEW&quot;&gt;\nhttp://i.imgur.com/zG8ah3T.png&lt;/a&gt;\n &lt;a href=&quot;\nhttp://i.imgur.com/OquWoIB.png&quot; rel=&quot;nofollow&quot; target=&quot;_NEW&quot;&gt;\nhttp://i.imgur.com/OquWoIB.png&lt;/a&gt;\n &lt;a href=&quot;\nhttp://i.imgur.com/0xB8lY4.png&quot; rel=&quot;nofollow&quot; target=&quot;_NEW&quot;&gt;\nhttp://i.imgur.com/0xB8lY4.png&lt;/a&gt;\n &lt;a href=&quot;\nhttp://i.imgur.com/BUZNBzS.png&quot; rel=&quot;nofollow&quot; target=&quot;_NEW&quot;&gt;\nhttp://i.imgur.com/BUZNBzS.png&lt;/a&gt;\n &lt;a href=&quot;\nhttp://i.imgur.com/fcM5FLT.png&quot; rel=&quot;nofollow&quot; target=&quot;_NEW&quot;&gt;\nhttp://i.imgur.com/fcM5FLT.png&lt;/a&gt;\n &lt;a href=&quot;\nhttp://i.imgur.com/DMPhabg.png&quot; rel=&quot;nofollow&quot; target=&quot;_NEW&quot;&gt;\nhttp://i.imgur.com/DMPhabg.png&lt;/a&gt;\n &lt;a href=&quot;\nhttp://i.imgur.com/6ZBLvbF.png&quot; rel=&quot;nofollow&quot; target=&quot;_NEW&quot;&gt;\nhttp://i.imgur.com/6ZBLvbF.png&lt;/a&gt;\n\n\n\n\n               ********** PLEASE SEED AS LONG AS YOU CAN AFTER DOWNLOAD **********\n                       \n                          ***** THANK YOU REGARDS - VikkyMaxx *****","torrent":{"xt":"urn:btih:c53c0df4707599f40622b793d9cc4d8d0eef0b27","amp;dn":"Bajrangi+Bhaijaan+%282015%29+HINDI+Non-Retail+DVD+X264+%7BVikkyMaxx%7D","amp;tr":["udp%3A%2F%2Ftracker.openbittorrent.com%3A80","udp%3A%2F%2Fopen.demonii.com%3A1337","udp%3A%2F%2Ftracker.coppersurfer.tk%3A6969","udp%3A%2F%2Fexodus.desync.com%3A6969"],"infoHash":"c53c0df4707599f40622b793d9cc4d8d0eef0b27","infoHashBuffer":{"type":"Buffer","data":[197,60,13,244,112,117,153,244,6,34,183,147,217,204,77,141,14,239,11,39]},"announce":[],"urlList":[]}}